<svg width="314.349509mm" height="105.224264mm" viewBox="0 0 314.349509 105.224264" xmlns="http://www.w3.org/2000/svg"><g id="svgGroup" stroke-linecap="round" fill-rule="evenodd" font-size="9pt" stroke="#000" stroke-width="0.25mm" fill="none" style="stroke:#000;stroke-width:0.25mm;fill:none"><path d="M 4.26908 18.060848 L 18.215806 19.281029 L 19.435986 5.334303 L 5.489261 4.114122 L 4.26908 18.060848 Z M 23.246589 19.721164 L 37.193315 20.941345 L 38.413495 6.994619 L 24.46677 5.774438 L 23.246589 19.721164 Z M 42.224096 21.38148 L 56.170822 22.601661 L 57.391003 8.654935 L 43.444277 7.434755 L 42.224096 21.38148 Z M 61.201605 23.041798 L 75.148331 24.261979 L 76.368512 10.315253 L 62.421786 9.095073 L 61.201605 23.041798 Z M 80.179114 24.702114 L 94.12584 25.922295 L 95.346021 11.975569 L 81.399295 10.755389 L 80.179114 24.702114 Z M 99.156624 26.362432 L 113.103349 27.582613 L 114.32353 13.635887 L 100.376804 12.415707 L 99.156624 26.362432 Z M 7.35314 37.453436 L 21.299866 38.673616 L 22.520046 24.72689 L 8.57332 23.50671 L 7.35314 37.453436 Z M 31.075027 39.528832 L 45.021753 40.749013 L 46.241933 26.802287 L 32.295207 25.582107 L 31.075027 39.528832 Z M 50.052536 41.189148 L 63.999262 42.409329 L 65.219442 28.462603 L 51.272716 27.242423 L 50.052536 41.189148 Z M 69.030045 42.849466 L 82.976771 44.069647 L 84.196951 30.122921 L 70.250225 28.902741 L 69.030045 42.849466 Z M 88.007554 44.509782 L 101.95428 45.729963 L 103.17446 31.783237 L 89.227734 30.563057 L 88.007554 44.509782 Z M 106.985061 46.170099 L 120.931787 47.390279 L 122.151967 33.443553 L 108.205241 32.223373 L 106.985061 46.170099 Z M 8.065012 56.638485 L 22.011738 57.858665 L 23.231918 43.91194 L 9.285192 42.691759 L 8.065012 56.638485 Z M 34.159086 58.92142 L 48.105812 60.1416 L 49.325993 46.194874 L 35.379267 44.974694 L 34.159086 58.92142 Z M 53.136596 60.581736 L 67.083321 61.801916 L 68.303502 47.855191 L 54.356776 46.63501 L 53.136596 60.581736 Z M 72.114105 62.242054 L 86.06083 63.462234 L 87.281011 49.515509 L 73.334285 48.295328 L 72.114105 62.242054 Z M 91.091614 63.90237 L 105.038339 65.12255 L 106.25852 51.175825 L 92.311794 49.955644 L 91.091614 63.90237 Z M 110.069123 65.562688 L 124.015848 66.782868 L 125.236029 52.836143 L 111.289303 51.615962 L 110.069123 65.562688 Z M 13.521259 76.238613 L 27.467985 77.458793 L 28.688166 63.512067 L 14.74144 62.291887 L 13.521259 76.238613 Z M 46.731902 79.144166 L 60.678628 80.364347 L 61.898808 66.417621 L 47.952082 65.197441 L 46.731902 79.144166 Z M 65.709411 80.804483 L 79.656137 82.024663 L 80.876317 68.077937 L 66.929591 66.857757 L 65.709411 80.804483 Z M 84.68692 82.464801 L 98.633646 83.684981 L 99.853826 69.738255 L 85.9071 68.518075 L 84.68692 82.464801 Z M 103.664429 84.125117 L 117.611155 85.345297 L 118.831335 71.398571 L 104.884609 70.178391 L 103.664429 84.125117 Z M 0 94.178423 L 13.946726 95.398603 L 15.166906 81.451877 L 1.22018 80.231697 L 0 94.178423 Z M 33.21064 97.083978 L 47.157366 98.304159 L 48.377547 84.357433 L 34.430821 83.137252 L 33.21064 97.083978 Z M 56.932527 99.159373 L 70.879253 100.379553 L 72.099433 86.432827 L 58.152708 85.212647 L 56.932527 99.159373 Z M 92.515357 102.272469 L 106.462083 103.492649 L 107.682263 89.545923 L 93.735538 88.325743 L 92.515357 102.272469 Z M 122.370349 28.354704 L 136.317075 27.134523 L 135.096894 13.187797 L 121.150169 14.407978 L 122.370349 28.354704 Z M 141.347858 26.694386 L 155.294584 25.474205 L 154.074403 11.527479 L 140.127678 12.74766 L 141.347858 26.694386 Z M 160.325367 25.03407 L 174.272093 23.813889 L 173.051912 9.867163 L 159.105187 11.087344 L 160.325367 25.03407 Z M 179.302876 23.373752 L 193.249602 22.153571 L 192.029421 8.206845 L 178.082696 9.427026 L 179.302876 23.373752 Z M 198.280385 21.713435 L 212.227111 20.493255 L 211.00693 6.546529 L 197.060205 7.76671 L 198.280385 21.713435 Z M 217.257894 20.053119 L 231.20462 18.832939 L 229.98444 4.886213 L 216.037714 6.106394 L 217.257894 20.053119 Z M 236.235403 18.392801 L 250.182129 17.172621 L 248.961949 3.225895 L 235.015223 4.446076 L 236.235403 18.392801 Z M 264.701666 15.902326 L 278.648392 14.682146 L 277.428211 0.73542 L 263.481485 1.9556 L 264.701666 15.902326 Z M 298.742465 22.485526 L 312.689191 21.265346 L 311.46901 7.31862 L 297.522285 8.5388 L 298.742465 22.485526 Z M 128.775043 46.917132 L 142.721769 45.696952 L 141.501588 31.750226 L 127.554862 32.970406 L 128.775043 46.917132 Z M 147.752552 45.256816 L 161.699278 44.036636 L 160.479097 30.08991 L 146.532371 31.31009 L 147.752552 45.256816 Z M 166.730061 43.596498 L 180.676787 42.376318 L 179.456606 28.429592 L 165.50988 29.649772 L 166.730061 43.596498 Z M 185.70757 41.936182 L 199.654296 40.716002 L 198.434115 26.769276 L 184.487389 27.989456 L 185.70757 41.936182 Z M 204.685079 40.275866 L 218.631805 39.055686 L 217.411624 25.10896 L 203.464899 26.32914 L 204.685079 40.275866 Z M 223.662588 38.615548 L 237.609314 37.395368 L 236.389133 23.448642 L 222.442408 24.668822 L 223.662588 38.615548 Z M 242.640097 36.955232 L 256.586823 35.735051 L 255.366642 21.788326 L 241.419917 23.008506 L 242.640097 36.955232 Z M 268.734172 34.672295 L 282.680897 33.452115 L 281.460717 19.505389 L 267.513991 20.725569 L 268.734172 34.672295 Z M 300.402783 41.463035 L 314.349509 40.242855 L 313.129328 26.296129 L 299.182603 27.516309 L 300.402783 41.463035 Z M 135.179737 65.479563 L 149.126462 64.259382 L 147.906282 50.312656 L 133.959556 51.532837 L 135.179737 65.479563 Z M 154.157246 63.819247 L 168.103971 62.599066 L 166.883791 48.65234 L 152.937065 49.872521 L 154.157246 63.819247 Z M 173.134755 62.158929 L 187.08148 60.938748 L 185.8613 46.992022 L 171.914574 48.212203 L 173.134755 62.158929 Z M 192.112264 60.498613 L 206.058989 59.278432 L 204.838809 45.331706 L 190.892083 46.551887 L 192.112264 60.498613 Z M 211.089773 58.838295 L 225.036499 57.618114 L 223.816318 43.671388 L 209.869592 44.891569 L 211.089773 58.838295 Z M 230.067282 57.177978 L 244.014008 55.957798 L 242.793827 42.011072 L 228.847101 43.231253 L 230.067282 57.177978 Z M 263.277922 54.272423 L 277.224648 53.052243 L 276.004467 39.105517 L 262.057742 40.325697 L 263.277922 54.272423 Z M 132.095677 84.87215 L 146.042403 83.65197 L 144.822222 69.705244 L 130.875496 70.925424 L 132.095677 84.87215 Z M 151.073186 83.211834 L 165.019912 81.991654 L 163.799731 68.044928 L 149.853005 69.265108 L 151.073186 83.211834 Z M 170.050695 81.551516 L 183.997421 80.331336 L 182.77724 66.38461 L 168.830515 67.60479 L 170.050695 81.551516 Z M 189.028204 79.8912 L 202.97493 78.67102 L 201.754749 64.724294 L 187.808024 65.944474 L 189.028204 79.8912 Z M 208.005713 78.230884 L 221.952439 77.010704 L 220.732258 63.063978 L 206.785533 64.284158 L 208.005713 78.230884 Z M 226.983222 76.570566 L 240.929948 75.350386 L 239.709767 61.40366 L 225.763042 62.62384 L 226.983222 76.570566 Z M 250.705109 74.495169 L 264.651835 73.274989 L 263.431654 59.328263 L 249.484928 60.548444 L 250.705109 74.495169 Z M 279.58645 76.749072 L 293.533176 75.528892 L 292.312995 61.582166 L 278.36627 62.802346 L 279.58645 76.749072 Z M 162.222257 101.359184 L 176.168983 100.139004 L 174.948803 86.192278 L 161.002077 87.412458 L 162.222257 101.359184 Z M 197.805086 98.24609 L 211.751811 97.02591 L 210.531631 83.079184 L 196.584905 84.299365 L 197.805086 98.24609 Z M 221.526972 96.170694 L 235.473698 94.950513 L 234.253518 81.003788 L 220.306792 82.223968 L 221.526972 96.170694 Z M 262.269259 97.386897 L 276.215985 96.166717 L 274.995804 82.219991 L 261.049078 83.440171 L 262.269259 97.386897 Z M 281.246768 95.726581 L 295.193494 94.506401 L 293.973313 80.559675 L 280.026588 81.779855 L 281.246768 95.726581 Z M 300.224277 94.066265 L 314.171003 92.846085 L 312.950822 78.899359 L 299.004097 80.119539 L 300.224277 94.066265 Z M 5.028213 76.499387 L 12.001576 77.109478 L 13.308912 62.166557 L 6.335549 61.556467 L 5.028213 76.499387 Z M 28.813357 78.580318 L 35.78672 79.190408 L 37.094056 64.247488 L 30.120694 63.637397 L 28.813357 78.580318 Z M 84.022311 102.533243 L 90.995674 103.143333 L 92.30301 88.200413 L 85.329647 87.590323 L 84.022311 102.533243 Z M 107.807455 104.614174 L 114.780818 105.224264 L 116.088154 90.281343 L 109.114791 89.671253 L 107.807455 104.614174 Z M 256.382931 17.633941 L 263.356294 17.023851 L 262.048957 2.08093 L 255.075595 2.691021 L 256.382931 17.633941 Z M 280.168075 15.553011 L 287.141438 14.94292 L 285.834102 0 L 278.860739 0.61009 L 280.168075 15.553011 Z M 254.959187 56.004038 L 261.93255 55.393948 L 260.625214 40.451027 L 253.651851 41.061117 L 254.959187 56.004038 Z M 278.744332 53.923107 L 285.717694 53.313017 L 284.410358 38.370097 L 277.436995 38.980187 L 278.744332 53.923107 Z M 153.903522 103.090799 L 160.876885 102.480709 L 159.569549 87.537788 L 152.596186 88.147879 L 153.903522 103.090799 Z M 177.688667 101.009869 L 184.66203 100.399778 L 183.354694 85.456858 L 176.381331 86.066948 L 177.688667 101.009869 Z" vector-effect="non-scaling-stroke"/></g></svg>